<?xml version="1.0" encoding="UTF-8"?>
<svg id="Mode_Isolation" xmlns="http://www.w3.org/2000/svg" version="1.1" viewBox="0 0 200 84.85">
  <!-- Generator: Adobe Illustrator 29.4.0, SVG Export Plug-In . SVG Version: 2.1.0 Build 152)  -->
  <defs>
    <style>
      .st0 {
        fill: #fff;
      }
    </style>
  </defs>
  <path class="st0" d="M34.19,54.81v2.48c0,.31.06.58.18.82.06,1.53.12,2.84.18,3.94s.15,1.8.28,2.11c.43.73,1.18,1.13,2.25,1.19,1.07.06,2.21-.21,3.44-.82.49-.25.82-.5,1.01-.78.18-.28.27-.55.27-.83s-.03-.55-.09-.83c-.06-.27-.09-.56-.09-.87,0-.18-.02-.9-.05-2.15s-.08-2.64-.14-4.17c.06-.06.09-.15.09-.28v-4.54c0-2.23-.02-4.84-.05-7.84-.03-2.99-.06-6.19-.09-9.58s-.08-6.63-.14-9.72c-.06-3.09-.12-5.84-.18-8.25s-.12-4.14-.18-5.18c-.12-1.53-.54-2.84-1.24-3.94s-1.6-2.08-2.7-2.93c-1.65-1.22-3.03-1.01-4.13.64.06.31.11.63.14.96.03.34.05.66.05.96,0,.06-.02.12-.05.18s-.05.12-.05.18c-.06.24-.17.69-.32,1.33s-.41,1.45-.78,2.43c-.37,1.04-.81,2.19-1.33,3.44s-1.12,2.58-1.79,3.99c-1.28,2.81-2.69,5.75-4.22,8.8-1.53,3.06-2.9,5.84-4.13,8.34-1.16,2.32-2.34,4.65-3.53,6.97s-2.4,4.65-3.62,6.97l-11.28-.46c-.61,0-.92.32-.92.96s.31.99.92,1.05c1.77.06,3.5.11,5.18.14s3.38.11,5.09.23l-.73,1.38-4.68,8.53c-.86,1.41-1.68,2.78-2.48,4.13-.8,1.34-1.62,2.66-2.48,3.94-.37.55-.55,1.19-.55,1.93,0,.37.03.72.09,1.05.06.34.18.66.37.96.3.61.82.89,1.56.82.79-.18,1.71-.89,2.75-2.11,1.04-1.35,1.99-2.66,2.84-3.94.86-1.28,1.65-2.57,2.38-3.85.79-1.28,1.51-2.52,2.15-3.71s1.27-2.4,1.88-3.62l2.57-5.32,16.41.55c-.06,1.71-.09,3.15-.09,4.31l.03.01ZM36.85,26.29c0-.24.03-.38.09-.41s.12-.08.18-.14l.09.09c0,.06.01.12.05.18.03.06.05.15.05.28s-.02.21-.05.27c-.03.06-.05.12-.05.18l-.09.09c-.18,0-.27-.18-.27-.55v.01ZM37.63,58.84s-.05.03-.05.09l-.09.09c-.18,0-.27-.12-.27-.37s.09-.37.27-.37c0,.06.03.09.09.09,0,.06.01.09.05.09.03,0,.05.06.05.18s-.02.18-.05.18v.02ZM39.23,49.76c.06.49.11,1.16.14,2.02s.05,2.08.05,3.67v3.8c0,.95-.02,1.68-.05,2.2s-.08.99-.14,1.42c-.12-.43-.2-.9-.23-1.42-.03-.52-.08-1.25-.14-2.2-.06-.95-.09-2.21-.09-3.8-.06-1.59-.08-2.81-.05-3.67.03-.86.08-1.53.14-2.02v-.83c0-.06.03-.12.09-.18h.09c.06.06.09.12.09.18,0,.24.03.52.09.83h.01ZM38.36,16.02c.03-1.34.05-2.35.05-3.03.06-.61.11-1.01.14-1.19.03-.18.05-.31.05-.37,0,.06.01.18.05.37.03.18.08.58.14,1.19.06.67.11,1.68.14,3.03s.08,3.18.14,5.5v5.64c0,1.44-.02,2.57-.05,3.39-.03.83-.06,1.38-.09,1.65s-.05.44-.05.5c0-.06-.03-.23-.09-.5-.06-.28-.11-.81-.14-1.6s-.08-1.91-.14-3.35c-.06-1.44-.09-3.35-.09-5.73-.06-2.32-.08-4.16-.05-5.5h-.01ZM37.49,51.6c0,.12.03.24.09.37,0,.18.01.49.05.92.03.43.08.98.14,1.65,0,1.41-.05,2.31-.14,2.7-.09.4-.14.63-.14.69h-.09c-.06-.18-.12-.4-.18-.64-.06-.24-.11-.58-.14-1.01-.03-.43-.05-1.01-.05-1.74,0-.67.01-1.21.05-1.6.03-.4.05-.72.05-.96,0-.12.01-.2.05-.23.03-.03.05-.08.05-.14s.03-.09.09-.09h.09c.06,0,.09.03.09.09l-.01-.01ZM36.71,17.63c.03-.64.05-1.11.05-1.42,0-.12.01-.24.05-.37.03-.12.05-.21.05-.28s.03-.09.09-.09.12.25.18.73c.06.31.11.76.14,1.38.03.61.08,1.47.14,2.57,0,2.14-.05,3.5-.14,4.08s-.14.9-.14.96c-.06-.06-.14-.38-.23-.96s-.17-1.94-.23-4.08c0-1.04.01-1.88.05-2.52h-.01ZM9.44,57.65c.06-.43.43-1.28,1.1-2.57.55-1.16.98-1.93,1.28-2.29l.09-.09.09-.09v-.09h.09c.06,0,.09-.03.09-.09.06.06.06.25,0,.55-.06.18-.17.46-.32.82-.15.37-.38.89-.69,1.56-.67,1.28-1.13,2.08-1.38,2.38-.24.31-.4.46-.46.46-.06-.12-.03-.31.09-.55h.02ZM8.79,58.75l.18-.18h.18c.18,0,.21.15.09.46-.06,0-.09.03-.09.09-.06,0-.09.03-.09.09h-.18c-.18,0-.21-.15-.09-.46ZM14.94,50.96c0,.12-.03.25-.09.37s-.12.28-.18.46c-.18.43-.46,1.04-.83,1.83s-.89,1.9-1.56,3.3c-.67,1.34-1.24,2.43-1.7,3.25-.46.83-.82,1.47-1.1,1.93-.27.46-.49.78-.64.96-.15.18-.23.31-.23.37,0-.06.03-.2.09-.41s.2-.58.41-1.1c.21-.52.52-1.19.92-2.02s.93-1.91,1.6-3.26c.67-1.41,1.22-2.49,1.65-3.25.43-.76.76-1.36,1.01-1.79.12-.24.27-.46.46-.64l.18-.18v.18h.01ZM18.7,48.02l2.57-6.05c.79-2.08,1.54-4.09,2.25-6.05.7-1.96,1.39-3.85,2.06-5.68.67-1.83,1.34-3.62,2.02-5.36.67-1.74,1.34-3.5,2.02-5.27.37-.86.87-2.02,1.51-3.48.64-1.47,1.24-2.93,1.79-4.4.24-.67.47-1.31.69-1.93.21-.61.38-1.19.5-1.74.06.61.11,1.73.14,3.35.03,1.62.08,3.53.14,5.73v5.64c0,2.48-.02,5.2-.05,8.16-.03,2.97-.05,6.01-.05,9.12v8.53l-15.59-.55v-.02ZM198.71,40.69c-.27-.06-.57-.03-.87.09l-.46.28-.27.27-.55,1.01c-.12.12-.44.32-.96.6s-1.1.57-1.74.87c-.64.31-1.24.6-1.79.87-.55.27-.89.44-1.01.5l.37-1.47c.18-.79.27-1.65.27-2.57v-1.19l-.09-.55c0-.12-.02-.21-.05-.27s-.05-.15-.05-.28l-.09-.55-.28-1.1-.27-.55c-.06-.12-.09-.21-.09-.28s-.03-.12-.09-.18l-.55-.92c-.24-.24-.47-.47-.69-.69-.21-.21-.47-.38-.78-.5-.12-.06-.21-.09-.28-.09s-.12-.03-.18-.09l-.55-.18h-.92c-.31,0-.61.06-.92.18s-.61.24-.92.37c-.98.55-1.74,1.31-2.29,2.29-.37.31-.64.61-.82.92-.18.18-.4.52-.64,1.01l-.27.46-.28.64c-.18.49-.34.99-.46,1.51-.12.52-.18,1.05-.18,1.6.06.55.14,1.09.23,1.6.09.52.26,1.02.5,1.51.43.79,1.07,1.53,1.93,2.2.61.49,1.34.83,2.2,1.01.37.06.73.11,1.1.14.37.03.7.02,1.01-.05.18,0,.34-.03.46-.09-.31.67-.64,1.32-1.01,1.93s-.79,1.25-1.28,1.93c-.67.98-1.33,1.67-1.97,2.06-.64.4-1.24.58-1.79.55-.55-.03-1.05-.23-1.51-.6-.46-.37-.84-.83-1.15-1.38-.18-.31-.35-.89-.5-1.74-.15-.86-.26-1.85-.32-2.98-.06-1.13-.05-2.35.05-3.67.09-1.31.29-2.61.6-3.9.18-.55-.03-1.07-.64-1.56s-1.33-.81-2.15-.96c-.82-.15-1.62-.08-2.38.23-.76.31-1.27.98-1.51,2.02-.67,3.06-1.01,5.73-1.01,8.02s.2,4.22.6,5.78c.06.22.12.44.18.65-.19.35-.39.71-.6,1.05-.55,1.04-1.19,1.96-1.93,2.75-.73.79-1.62,1.41-2.66,1.83-1.04.37-2.03.34-2.98-.09s-1.64-1.16-2.06-2.2c-.24-.55-.43-1.1-.55-1.65-.12-.55-.25-1.1-.37-1.65-.24-1.34-.44-2.93-.6-4.77-.15-1.83-.26-3.76-.32-5.78-.06-2.02-.11-4.02-.14-6.01s-.03-3.79,0-5.41c.03-1.62.06-2.96.09-4.03.03-1.07.05-1.7.05-1.88,3.12.49,6.19.55,9.21.18,3.03-.37,5.82-1.41,8.39-3.12l.37-.82c.3-.55.6-1.1.87-1.65.27-.55.56-1.1.87-1.65-.24,0-.49.12-.73.37-1.77,2.2-3.88,3.64-6.33,4.31-2.44.67-4.95.95-7.52.82-.73-.06-1.45-.18-2.15-.37-.7-.18-1.48-.37-2.34-.55l.83-1.83c.86-2.14,1.8-4.28,2.84-6.42,1.04-2.14,1.96-4.28,2.75-6.42.43-1.16.73-2.37.92-3.62.18-1.25.12-2.52-.18-3.81-.24-1.53-1.1-2.38-2.57-2.57-.92-.06-1.79.08-2.61.41-.83.34-1.51.87-2.06,1.6-.61.8-1.18,1.59-1.7,2.38-.52.8-.93,1.65-1.24,2.57-.55,1.77-1.05,3.56-1.51,5.36-.46,1.8-.93,3.65-1.42,5.55l-.46,2.93-.45,1.92c-19.78-6.89-85.15-6.05-99.13-5.78-1.31.02-2.26,1.25-1.96,2.53,0,.02,0,.04.01.06.22.98,1.13,1.64,2.13,1.59,69.73-3.87,91.95.34,98.91,2.96.02.21.03.43.03.67-.06,3.42-.11,6.46-.14,9.12s0,5.21.09,7.66c0,.2.02.41.03.61-.77.71-1.58,1.38-2.46,2-1.59,1.13-3.42,2.06-5.5,2.8-.86.37-1.5.24-1.93-.37l-5.41-6.97c-.61-.67-.64-1.38-.09-2.11,1.47-1.96,1.99-3.88,1.56-5.78-.37-1.96-1.9-2.75-4.58-2.38-1.28.18-2.43.67-3.44,1.47-1.01.8-1.57,1.71-1.7,2.75-.12,1.04-.11,2.05.05,3.03.15.98.5,1.93,1.05,2.84.98,1.65,1.99,3.3,3.03,4.95.15.24.3.47.45.71-.18.18-.36.46-.54.85-.86,1.96-1.79,3.88-2.8,5.78-1.01,1.9-2.34,3.58-3.99,5.04-.12.12-.29.26-.5.41s-.44.27-.69.37c-.25.09-.49.11-.73.05-.24-.06-.43-.27-.55-.64.12-.31.15-.63.09-.96-.06-.34-.09-.66-.09-.96,0-1.1.01-2.37.05-3.81.03-1.44.06-2.84.09-4.22s.08-2.64.14-3.81c.06-1.16.15-2.05.28-2.66.24-1.34-.12-2.44-1.1-3.3-.61-.49-1.32-.95-2.11-1.38-1.41-.73-2.29-.34-2.66,1.19-.31,1.35-.58,2.69-.83,4.03-.24,1.34-.52,2.69-.83,4.03-.67,2.38-1.45,4.46-2.34,6.23s-1.88,3.09-2.98,3.94c-1.04.8-2.03,1.02-2.98.69-.95-.34-1.6-1.11-1.97-2.34-.24-.55-.37-1.25-.37-2.11.12-1.41.28-2.71.46-3.9.18-1.19.37-2.35.55-3.48s.37-2.29.55-3.48.37-2.49.55-3.9c.12-1.1.06-2.06-.18-2.89-.24-.83-.76-1.57-1.56-2.25-.98-.79-1.91-1.02-2.8-.69-.89.34-1.45,1.12-1.7,2.34-.12.67-.31,2.02-.55,4.03-.24,2.02-.43,4.2-.55,6.56-.1,1.9-.12,3.74-.08,5.54-.17.32-.34.65-.51.97-1.01,1.86-2.34,3.56-3.99,5.09-.12.12-.34.29-.64.5-.31.21-.61.34-.92.37s-.57-.11-.78-.41c-.21-.31-.32-.98-.32-2.02.12-.49.18-.86.18-1.1.12-1.04.01-1.88-.33-2.52-.34-.64-.88-1.27-1.62-1.88-.43-.37-.85-.5-1.25-.41s-.72.38-.97.87c-.25.61-.46,1.22-.65,1.83s-.37,1.25-.55,1.93c-.56,2.38-1.79,4.28-3.7,5.68-1.54,1.16-2.4.79-2.59-1.1-.06-.86-.09-1.68-.09-2.48s.06-1.62.18-2.48c.18-2.32.59-4.6,1.2-6.83.62-2.23,1.61-4.32,2.96-6.28.31-.49.71-.9,1.2-1.24s.96-.69,1.39-1.05c.31.55.63,1.07.97,1.56.34.49.6,1.04.79,1.65.25.67.4,1.37.46,2.11.06.73.15,1.47.28,2.2.12,0,.21.02.27.05s.15.05.28.05c.06-.24.15-.47.28-.69.12-.21.18-.44.18-.69-.18-2.57-1.04-4.83-2.58-6.78-1.6-1.83-3.6-2.38-6-1.65-1.6.49-2.89,1.56-3.87,3.21-2.72,4.41-4.16,9.16-4.32,14.23-.98,1.74-2.24,3.29-3.77,4.66-.12.12-.29.26-.5.41s-.44.27-.69.37c-.25.09-.49.11-.73.05-.24-.06-.43-.27-.55-.64.12-.31.15-.63.09-.96-.06-.34-.09-.66-.09-.96,0-1.1.01-2.37.05-3.81.03-1.44.06-2.84.09-4.22s.08-2.64.14-3.81c.06-1.16.15-2.05.28-2.66.24-1.34-.12-2.44-1.1-3.3-.61-.49-1.32-.95-2.11-1.38-1.41-.73-2.29-.34-2.66,1.19-.31,1.35-.58,2.69-.83,4.03-.24,1.34-.52,2.69-.83,4.03-.67,2.38-1.45,4.46-2.34,6.23s-1.88,3.09-2.98,3.94c-1.04.8-2.03,1.02-2.98.69-.95-.34-1.6-1.11-1.97-2.34-.24-.55-.37-1.25-.37-2.11.12-1.41.28-2.71.46-3.9.18-1.19.37-2.35.55-3.48s.37-2.29.55-3.48.37-2.49.55-3.9c.12-1.1.06-2.06-.18-2.89-.24-.83-.76-1.57-1.56-2.25-.98-.79-1.91-1.02-2.8-.69-.89.34-1.45,1.12-1.7,2.34-.12.67-.31,2.02-.55,4.03-.24,2.02-.43,4.2-.55,6.56-.12,2.35-.14,4.63-.05,6.83.09,2.2.38,3.82.87,4.86.49,1.04,1.05,1.8,1.7,2.29.64.49,1.51.76,2.61.82,1.83.12,3.45-.2,4.86-.96s2.63-1.85,3.67-3.25c1.34-1.77,2.21-3.3,2.61-4.58.4-1.28.66-2.11.78-2.48.06.18.09.64.09,1.38v5.32c0,.92.03,1.59.09,2.02-.06.06-.09.15-.09.28.06.55.34,1.05.83,1.51.49.46,1.07.84,1.74,1.15s1.42.5,2.25.6c.82.09,1.66.05,2.52-.14.61-.12,1.19-.41,1.74-.87s1.16-1.11,1.83-1.97c.38-.48.73-.96,1.08-1.45,0,.09,0,.17.02.26.25,3.67,1.85,5.65,4.81,5.96,1.17.12,2.22-.05,3.14-.5.92-.46,1.82-1.02,2.68-1.7l1.39-1.28-1.38,11.92c-1.77.43-3.21.98-4.31,1.65s-1.94,1.42-2.52,2.25c-.58.83-.95,1.68-1.1,2.57s-.17,1.73-.05,2.52c.18,1.22.61,2.2,1.28,2.93s1.41,1.28,2.2,1.65c.79.37,1.6.55,2.43.55s1.51-.12,2.06-.37c.79-.37,1.48-.89,2.06-1.56.58-.67,1.1-1.45,1.56-2.34s.83-1.8,1.1-2.75.47-1.85.6-2.7l.44-3.33c12.1-2.12,38.16-3.87,89.56,2.68,1.41.18,2.71-.83,2.86-2.25.15-1.43-.9-2.7-2.33-2.8-13.99-1.04-62.76-4.36-88.22-.35l-1.48.17c.18-1.77.34-3.56.46-5.36.12-1.8.18-3.59.18-5.36.79.61,1.53.8,2.2.55,1.1-.3,2.29-1.25,3.58-2.84.69-.9,1.34-1.8,1.94-2.71.15,1.22.39,2.19.71,2.89.49,1.04,1.05,1.8,1.7,2.29.64.49,1.51.76,2.61.82,1.83.12,3.45-.2,4.86-.96s2.63-1.85,3.67-3.25c1.34-1.77,2.21-3.3,2.61-4.58.4-1.28.66-2.11.78-2.48.06.18.09.64.09,1.38v5.32c0,.92.03,1.59.09,2.02-.06.06-.09.15-.09.28.06.55.34,1.05.83,1.51.49.46,1.07.84,1.74,1.15s1.42.5,2.25.6c.82.09,1.66.05,2.52-.14.61-.12,1.19-.41,1.74-.87s1.16-1.11,1.83-1.97c2.44-3.12,4.34-6.36,5.68-9.72v-.08c.52.82,1.03,1.64,1.55,2.46.24.43.34.78.28,1.05s-.37.57-.92.87c-1.16.61-2.25,1.28-3.26,2.02-1.01.73-1.85,1.59-2.52,2.57-1.34,2.14-.73,3.88,1.83,5.23.92.49,1.88.86,2.89,1.1,1.01.24,2.09.34,3.25.27h1.47c2.14-.18,3.93-.72,5.36-1.6,1.44-.89,2.15-2,2.15-3.35,0-1.04-.11-2.05-.32-3.03s-.44-1.96-.69-2.93c-.12-.43-.35-.86-.69-1.28-.34-.43-.44-.79-.32-1.1.18-.37.58-.67,1.19-.92.61-.24,1.16-.52,1.65-.83,1.77-.92,3.39-1.94,4.86-3.07.07-.05.13-.11.2-.16.12,1.59.28,3.18.49,4.79.34,2.51.87,5.26,1.6,8.25.43,1.59.99,2.78,1.7,3.58.7.79,1.76,1.59,3.16,2.38,1.77,1.04,3.47,1.41,5.09,1.1s3.13-1.22,4.54-2.75c1.04-1.22,1.93-2.55,2.66-3.99.02-.05.04-.09.07-.14.13.18.25.35.39.5.73.83,1.5,1.3,2.29,1.42,1.59.18,3.29.15,5.09-.09s3.41-1.19,4.81-2.84c1.04-1.16,1.89-2.43,2.57-3.81.67-1.38,1.28-2.8,1.83-4.26,0-.06.06-.21.18-.46l.37-.28.73-.37.64-.46.46-.28c0-.06.24-.2.73-.41.49-.21,1.01-.43,1.56-.64s1.07-.43,1.56-.64c.49-.21.76-.35.83-.41l.09-.09c.12-.06.2-.12.23-.18s.08-.12.14-.18c.12-.06.24-.21.37-.46l.27-.28c.31-.49.55-.93.73-1.33s.31-.66.37-.78c.12-.49.05-.76-.23-.83l.0701.07ZM48.86,49.12c-.06,0-.09-.03-.09-.09-.06-.06-.09-.15-.09-.27v-.18l.09-.09c0-.06.03-.09.09-.09h.09l.09.09c0,.06.02.11.05.14s.05.08.05.14c0,.24-.09.37-.28.37v-.02ZM49.59,42.98c0,.43-.03.98-.09,1.65-.12,1.41-.23,2.31-.32,2.7-.09.4-.17.63-.23.69-.06-.06-.12-.29-.18-.69-.06-.4-.03-1.3.09-2.7.06-.73.12-1.3.18-1.7s.12-.72.18-.96c.06-.18.11-.29.14-.32s.05-.08.05-.14h.09c0,.06.02.11.05.14s.05.17.05.41v.92h-.01ZM51.43,42.06c-.06.86-.15,2.08-.27,3.67l-.46,5.96v1.1c-.06,0-.12-.06-.18-.18l-.18-.92c-.06-.49-.09-1.21-.09-2.15s.06-2.22.18-3.81.24-2.81.37-3.67c.12-.86.24-1.53.37-2.02,0-.31.06-.58.18-.83.06-.06.09-.12.09-.18v.18c0,.12.01.23.05.32.03.09.05.26.05.5,0,.49-.03,1.16-.09,2.02l-.02.01ZM79.21,52.79l-.09-.09c-.12-.12-.15-.28-.09-.46v-.27h.09v-.18h.18l.09.09c0,.06.02.11.05.14.03.03.05.11.05.23,0,.37-.09.55-.28.55v-.01ZM79.94,45.73c.21-.86.41-1.56.6-2.06.21-.58.38-1.02.5-1.33.12-.3.21-.47.28-.5.06-.03.12-.05.18-.05v.09c0,.06-.02.15-.05.28-.03.12-.05.24-.05.37-.06.31-.17.75-.32,1.33-.1.39-.23.88-.37,1.47-.25-.1-.51.04-.78.41l.01-.01ZM81.96,48.02c-.24,1.1-.41,2.09-.5,2.98s-.17,1.67-.23,2.34c-.06.67-.08,1.27-.05,1.79s.05.96.05,1.33c.06.61.12,1.04.18,1.28.06.24.09.4.09.46-.12-.12-.18-.21-.18-.28-.12-.12-.28-.61-.46-1.47-.06-.37-.11-.81-.14-1.33s-.05-1.11-.05-1.79c.06-.73.12-1.54.18-2.43s.21-1.91.46-3.07c.43-2.08.89-3.79,1.38-5.13.24-.61.47-1.11.69-1.51.21-.4.41-.75.6-1.05.43-.49.67-.76.73-.83.06,0,.09-.03.09-.09h.09c0,.06-.03.12-.09.18l-.46.92c-.31.67-.67,1.53-1.1,2.57-.18.67-.38,1.42-.6,2.25-.21.82-.44,1.79-.69,2.89l.01-.01ZM85.9,78.46c-.49,1.65-1.02,2.73-1.6,3.25s-1.13.64-1.65.37c-.52-.28-.96-.83-1.33-1.65s-.55-1.76-.55-2.8c-.06-1.1.52-2.08,1.74-2.93.41-.29.87-.56,1.33-.83.06-.03.94-.49,3.02-1.1-.35,2.68-.67,4.58-.96,5.69ZM103.78,42.98c0,.43-.03.98-.09,1.65-.04.41-.07.77-.1,1.1-.21.47-.43.94-.65,1.41-.03-.46,0-1.3.11-2.51.06-.73.12-1.3.18-1.7s.12-.72.18-.96c.06-.18.11-.29.14-.32s.05-.08.05-.14h.09c0,.06.02.11.05.14.03.03.05.17.05.41v.92h-.01ZM104.88,51.69v1.1c-.06,0-.12-.06-.18-.18l-.18-.92c-.06-.49-.09-1.21-.09-2.15,0-.3,0-.64.02-1.01.3-.62.57-1.25.83-1.9l-.39,5.06h-.01ZM105.61,42.06c-.04.61-.1,1.4-.18,2.38-.08-.19-.18-.33-.33-.41-.12-.06-.24-.07-.36-.03.07-.78.15-1.42.22-1.94.12-.86.24-1.53.37-2.02,0-.31.06-.58.18-.83.06-.06.09-.12.09-.18v.18c0,.12.01.23.05.32.03.09.05.26.05.5,0,.49-.03,1.16-.09,2.02v.01ZM134.31,32.71c.12-.43.31-.78.55-1.05.24-.28.67-.41,1.28-.41.24.06.5.23.78.5s.47.57.6.87c.31.73.34,1.45.09,2.15-.24.7-.7,1.45-1.38,2.25-.61-.73-1.12-1.44-1.51-2.11-.4-.67-.54-1.41-.41-2.2ZM134.49,41.42l-.09-.09c-.06-.06-.12-.11-.18-.14s-.12-.11-.18-.23c-.18-.18-.4-.46-.64-.83-.24-.37-.58-.86-1.01-1.47-.37-.67-.63-1.21-.78-1.6-.15-.4-.26-.69-.32-.87-.06-.37-.06-.58,0-.64v.09h.09v.09h.09c0,.06.03.09.09.09v.09l.09.09,1.38,2.29c.67,1.16,1.1,1.99,1.28,2.48.18.37.24.58.18.64v.01ZM135.22,42.15c-.06.06-.09.12-.09.18h-.27v-.09h-.09c0-.06-.03-.09-.09-.09-.12-.31-.09-.46.09-.46h.18l.09.09c.06,0,.09.03.09.09.12.12.15.21.09.28h0ZM137.2,42.84c-.21-.28-.47-.63-.78-1.05l-2.02-3.21c-.43-.67-.78-1.27-1.05-1.79-.28-.52-.5-.99-.69-1.42-.31-.79-.4-1.34-.28-1.65.06-.24.15-.37.28-.37v-.09h.09v.46c0,.37.15.86.46,1.47.18.37.41.81.69,1.33s.63,1.12,1.05,1.79l2.02,3.21,1.1,1.93c.31.49.49.81.55.96.06.15.09.26.09.32-.06,0-.37-.37-.92-1.1-.18-.24-.38-.5-.6-.78l.01-.01ZM141,61.04c-.61.49-1.53.64-2.75.46-1.9-.3-3.58-.82-5.04-1.56-.98-.49-1.5-1.07-1.56-1.74-.06-.67.24-1.34.92-2.02.67-.79,1.51-1.45,2.52-1.97,1.01-.52,2.18-1.05,3.53-1.6.49,1.16,1.01,2.26,1.56,3.3s.98,2.08,1.28,3.12c.31.86.15,1.53-.46,2.02v-.01ZM142.56,54.26l-.83-1.93c-.06-.12-.09-.24-.09-.37v-.09h.18v.09h.09v.09h.09c.31.31.7.95,1.19,1.93.31.49.49.9.55,1.24s.12.63.18.87v.37l-.09.09c-.06,0-.09-.03-.09-.09-.06,0-.12-.09-.18-.28l-1.01-1.93.01.01ZM143.66,57.1c0-.18.09-.27.27-.27h.09v.09h.09v.09l.09.09c0,.18-.09.28-.28.28h-.09c-.12,0-.18-.09-.18-.28h.01ZM145.95,57.56v.46c-.06.06-.09.18-.09.37-.06.06-.09.15-.09.27,0,.06-.02.12-.05.18s-.05.12-.05.18l-.55.92c-.12.12-.21.21-.28.28-.06.06-.12.15-.18.27l-.37.28-.37.18c0-.06.06-.15.18-.27l.27-.37c.12-.12.24-.31.37-.55.12-.24.26-.55.41-.92.15-.37.2-.79.14-1.28,0-.92-.27-2.02-.82-3.3-.31-.67-.58-1.24-.83-1.7-.24-.46-.46-.84-.64-1.15l-.83-1.56c-.18-.37-.29-.6-.32-.69-.03-.09-.05-.17-.05-.23h.09v.09h.09c0,.06.03.09.09.09l.09.09v.09c.06,0,.09.03.09.09h.09c0,.06.01.11.05.14.03.03.05.08.05.14.37.37.7.86,1.01,1.47.24.31.49.69.73,1.15.24.46.52,1.02.83,1.7.61,1.22.92,2.41.92,3.58h.02ZM155.85,50.5c0,.25-.09.37-.27.37,0,.06-.03.06-.09,0-.12,0-.18-.12-.18-.37s.09-.37.28-.37h.09v.09h.09v.09l.09.09v.09l-.01.01ZM157,48.21c-.09.43-.14.67-.14.73-.06,0-.14-.23-.23-.69s-.17-1.39-.23-2.8c-.06-.67-.08-1.22-.05-1.65s.05-.73.05-.92c0-.12.01-.21.05-.28.03-.06.05-.12.05-.18s.03-.09.09-.09h.09c.06,0,.09.03.09.09,0,.18.03.34.09.46,0,.18.01.47.05.87.03.4.08.96.14,1.7.06,1.41.05,2.32-.05,2.75v.01ZM164.56,2.46c.73.12,1.18.5,1.33,1.15.15.64.2,1.3.14,1.97-.12.73-.23,1.48-.32,2.25-.09.76-.29,1.48-.6,2.15-.67,1.83-1.45,3.67-2.34,5.5s-1.67,3.67-2.34,5.5l-.73-.28c.12-1.04.29-2.12.5-3.25s.38-2.22.5-3.25c.18-1.59.41-3.15.69-4.68.28-1.53.56-3.06.87-4.58.12-.61.34-1.21.64-1.79.31-.58.86-.81,1.65-.69h.01ZM158.97,53.52h-.09v-.18c-.18-.12-.31-.43-.37-.92-.12-.49-.23-1.22-.32-2.2-.09-.98-.17-2.26-.23-3.85s-.08-2.81-.05-3.67c.03-.86.08-1.53.14-2.02,0-.49.01-.78.05-.87.03-.09.08-.17.14-.23,0,.06.01.14.05.23.03.09.08.38.14.87.06.49.09,1.16.09,2.02s.06,2.08.18,3.67c.06,1.59.11,2.86.14,3.8.03.95.05,1.67.05,2.15.06.31.09.52.09.64v.55l-.01.01ZM158.97,10.16c-.06.24-.09.43-.09.55s-.03.25-.09.37l-.18.18v-.18c-.12-.31-.15-.64-.09-1.01,0-.06.01-.09.05-.09.03,0,.05-.03.05-.09v-.46l.09-.09v-.09h.09v-.09h.09v-.09h.09c0,.06.03.14.09.23.06.09.03.38-.09.87l-.01-.01ZM159.24,8.05c0-.06-.02-.12-.05-.18s-.02-.21.05-.46c.06-.24.15-.56.28-.96.12-.4.37-.9.73-1.51.3-.61.6-1.04.87-1.28.27-.24.5-.43.69-.55.06-.06.12-.09.18-.09h.09c0-.06.03-.09.09-.09h.09v.09h.09c-.06,0-.09.03-.09.09-.06.06-.09.11-.09.14s-.03.08-.09.14c-.12.12-.29.34-.5.64-.21.31-.47.73-.78,1.28-.61,1.22-1.01,1.96-1.19,2.2-.12.37-.24.55-.37.55v-.01ZM173.41,51.22s-.03.01-.05.01l-.09-.09c-.12-.12-.18-.21-.18-.28,0-.31.09-.46.28-.46v.09h.18v.18l.04.04c-.06.17-.11.33-.17.5l-.01.01ZM173.96,44.72c-.03.43-.08,1.01-.14,1.74l-.37,2.84c0,.12-.01.23-.05.32-.03.09-.05.17-.05.23v.18h-.09c-.06-.06-.09-.12-.09-.18s-.01-.14-.05-.23c-.03-.09-.05-.2-.05-.32-.06-.43-.06-1.41,0-2.93.18-1.34.37-2.26.55-2.75,0-.12.02-.2.05-.23s.05-.08.05-.14.03-.09.09-.09c.12,0,.18.18.18.55,0,.25-.02.58-.05,1.01h.02ZM174.73,47.65v-.09c.06-.86.12-1.57.18-2.15s.15-1.11.28-1.6l.46-2.11c.06-.37.15-.64.27-.83l.09-.18c.06.06.09.14.09.23s-.03.38-.09.87l-.28,2.11c-.06.49-.12,1.02-.18,1.6-.06.58-.12,1.27-.18,2.06-.02.2-.03.39-.04.58-.17-.27-.36-.43-.56-.49h-.05.01ZM176.11,53.89c-.18,0-.4-.18-.64-.55-.17-.25-.32-.63-.45-1.14l.35-1.01s0,.06.01.09c.12.89.28,1.51.46,1.88.12.37.23.58.32.64.09.06.14.12.14.18-.06,0-.12-.03-.18-.09h-.01ZM186.11,35.28h.37v.37c0,.06-.06.09-.18.09l-.09.09c-.06,0-.12-.03-.18-.09l-.09-.09c0-.18.06-.3.18-.37h-.01ZM185.33,36.2s-.05.03-.05.09c-.06,0-.15.06-.28.18l-.37.28-.37.18c0,.06-.03.09-.09.09h-.09c0-.06-.02-.09-.05-.09s-.02-.06.05-.18c0-.06.06-.15.18-.28l.37-.46.27-.18c.06,0,.11-.01.14-.05.03-.03.08-.05.14-.05.06-.06.15-.09.27-.09h.18v.09c.12,0,.12.06,0,.18l-.28.18c0,.06-.02.09-.05.09l.03.02ZM188.86,45.46c0,.06-.02.12-.05.18s-.05.12-.05.18c-.67,0-1.22-.09-1.65-.28-.37-.06-.7-.21-1.01-.46-.31-.31-.49-.55-.55-.73-.12-.37-.18-.73-.18-1.1,0-.18.01-.4.05-.64.03-.24.08-.52.14-.83l.09-.09v-.18l.18-.37.28-.55.37-.73c.37,0,.61.09.73.28.12,0,.18.06.18.18.12,0,.18.06.18.18l.09.09.09.18.18.37c.24.43.43.92.55,1.47.37.86.49,1.8.37,2.84l.01.01ZM190.65,38.81s-.05.08-.05.14v.09h-.09v-.09h-.09v-.09h-.09v-.09l-.09-.09c-.12-.12-.24-.34-.37-.64-.12-.3-.4-.7-.83-1.19l-.55-.55c-.06,0-.15-.06-.28-.18-.06-.06-.12-.09-.18-.09l-.73-.37c-.12-.06-.21-.09-.27-.09s-.12-.03-.18-.09h-.18v-.09h.18l.09-.09h.09c.06,0,.09-.03.09-.09h.55l.09.09h.28c.06,0,.11.02.14.05s.08.05.14.05l.28.18c.12,0,.24.06.37.18l.37.27.28.37c.43.55.7,1.01.83,1.38.18.37.27.64.27.83,0,.12-.02.2-.05.23l-.02-.03ZM18.7,74.07c-7.08,4.32,55.09-.86,53.36-2.22s-53.36,2.22-53.36,2.22Z"/>
</svg>
